<svg width="55" height="52" viewBox="0 0 55 52" fill="none" xmlns="http://www.w3.org/2000/svg">
<path d="M34.5945 50.7075C31.8941 51.3267 28.2817 50.7996 25.8934 47.5008L25.7769 47.3404L25.6424 47.485C22.778 50.5342 18.9564 50.4364 16.3358 49.3289C13.7102 48.2228 11.0479 45.5857 11.4477 41.5023L11.4671 41.3103L11.2622 41.3355C6.96088 41.9 4.05045 39.5088 2.76172 37.0824C1.47083 34.6545 1.19395 31.0508 4.28777 28.2173L4.43232 28.0835L4.25541 27.9785C0.525139 25.7923 -0.111317 22.2238 0.538083 19.614C1.18676 17.0028 3.42118 14.1197 7.76274 13.8593L7.9864 13.8449L7.93246 13.7335C6.48551 9.75222 8.42005 6.6771 10.7048 5.10286C12.991 3.52791 16.6968 2.71526 20.2502 5.14817L20.4185 5.26539L20.4918 5.08488C22.0531 1.27766 25.6554 0.132044 28.5061 0.334846C31.3576 0.534772 34.798 2.17157 35.9041 6.16434L35.9566 6.35348L36.1378 6.26214C39.9429 4.34271 43.5279 5.6638 45.6127 7.54512C47.6961 9.42644 49.2581 12.7475 47.4041 16.426L47.315 16.6008L47.517 16.6417C51.7896 17.504 53.6774 20.6755 54.019 23.3558C54.3613 26.0361 53.3178 29.4873 49.3617 31.1356L49.1754 31.2133L49.3063 31.3672C52.0449 34.6106 51.3538 38.1453 49.7946 40.3718C48.2333 42.5969 45.0784 44.5645 40.8692 43.4095L40.6707 43.3549L40.6678 43.5497C40.5908 47.6525 37.6437 49.8992 34.9131 50.6327C34.8067 50.6572 34.7009 50.6831 34.5945 50.7075Z" fill="#D62B17"/>
<path d="M39.0724 15.0085C38.0426 14.9437 37.0502 15.2882 36.2785 15.9693C36.2339 16.0081 36.2088 16.0584 36.1764 16.1052C35.3299 15.4817 34.4267 14.9445 33.4817 14.5C31.9859 13.7284 31.225 15.0646 31.1488 16.1203C31.0704 17.2084 28.7065 16.8143 26.8425 15.4342C24.9137 14.0067 24.6052 13.0696 23.0244 13.386C22.101 13.6025 21.1841 13.9031 20.2837 14.2951C20.2492 14.3102 20.2183 14.3296 20.1845 14.3447C18.7433 12.531 16.0982 12.2081 14.2665 13.6363C12.4241 15.0732 12.0932 17.7405 13.5294 19.5823C13.5639 19.6262 13.6064 19.6593 13.6473 19.6938C13.1957 20.3295 12.793 20.9962 12.4392 21.6873C11.5237 23.5513 11.0008 25.721 10.893 27.8404C10.4744 36.0812 17.223 43.1225 25.9672 43.5662C34.7108 44.0107 42.1382 37.69 42.5575 29.4484C42.6841 26.958 42.2152 24.364 41.1774 22.2324C41.1573 22.1921 41.14 22.1569 41.1256 22.1238C41.1192 22.1116 41.1141 22.0994 41.1077 22.0871H41.1091C41.0933 22.0461 41.0861 22.0159 41.0926 22.0008C41.1113 21.962 41.3083 21.829 41.3924 21.7542C42.9868 20.3439 43.1378 17.8995 41.7276 16.3037C41.0451 15.5327 40.1023 15.0725 39.0724 15.0085Z" fill="#FFE340"/>
<path d="M14.5498 18.1135C14.0111 17.0168 14.2851 15.6576 15.2862 14.8766C16.2549 14.1251 17.5832 14.1603 18.5131 14.8773C18.6303 14.9679 18.6202 15.1456 18.4936 15.2218C17.1316 16.0359 15.9334 17.0355 14.9029 18.166C14.7993 18.2789 14.6174 18.2509 14.5498 18.1135Z" fill="#D62B17"/>
<path d="M30.8485 26.1665C30.8773 25.2495 31.6468 24.5261 32.5644 24.5556C33.0081 24.5692 33.4209 24.7555 33.7251 25.0798C34.0293 25.4034 34.1897 25.827 34.1753 26.2715C34.1616 26.7152 33.9754 27.128 33.651 27.4322C33.4554 27.6156 33.2239 27.7465 32.9736 27.8184C32.8089 27.8658 32.6356 27.8874 32.4594 27.8817C31.5425 27.8529 30.8197 27.0834 30.8485 26.1665Z" fill="#331606"/>
<path d="M20.0638 26.1665C20.0926 25.2495 20.8621 24.5261 21.7797 24.5556C22.2234 24.5692 22.6362 24.7555 22.9404 25.0798C23.2447 25.4034 23.405 25.827 23.3906 26.2715C23.377 26.7152 23.1907 27.128 22.8664 27.4322C22.6708 27.6156 22.4392 27.7465 22.1889 27.8184C22.0242 27.8658 21.8509 27.8874 21.6747 27.8817C20.7578 27.8529 20.0351 27.0834 20.0638 26.1665Z" fill="#331606"/>
<path d="M33.7013 33.116C33.3245 34.3515 32.3442 35.2793 31.1483 35.623C30.7822 35.728 30.3953 35.7783 29.9998 35.7661C28.7672 35.7273 27.6575 35.0973 26.9851 34.0682C26.2501 35.0534 25.1023 35.6129 23.8697 35.5734C22.1826 35.5202 20.732 34.3372 20.3415 32.696C20.2552 32.3307 20.4832 31.9567 20.8464 31.8762C21.0233 31.8338 21.2059 31.8633 21.3613 31.9589C21.5159 32.0546 21.6238 32.2041 21.6662 32.381C21.915 33.426 22.8384 34.1789 23.9128 34.2127C25.0577 34.2487 26.0531 33.472 26.3062 32.3566C26.2983 32.3444 26.2918 32.3343 26.2853 32.3221L25.6978 31.2261C25.5489 30.9492 25.559 30.6241 25.7251 30.3559C25.8912 30.0877 26.1775 29.9338 26.4939 29.9438L27.7352 29.9827C28.0502 29.9927 28.3278 30.1646 28.4766 30.4422C28.6255 30.7198 28.6147 31.0456 28.4486 31.3131L27.7941 32.3695C27.7869 32.381 27.779 32.3918 27.7711 32.4019C27.9538 33.531 28.8988 34.3681 30.0437 34.4048C31.1174 34.4371 32.0868 33.7453 32.3996 32.7183C32.4528 32.5429 32.5715 32.3997 32.7333 32.3142C32.893 32.23 33.0771 32.2128 33.2504 32.2667C33.6078 32.376 33.8106 32.7572 33.7013 33.116Z" fill="#331606"/>
<path d="M37.6398 29.1896C37.664 28.5248 36.7904 27.9534 35.6886 27.9132C34.5868 27.8731 33.674 28.3795 33.6498 29.0443C33.6256 29.7091 34.4991 30.2806 35.6009 30.3207C36.7027 30.3608 37.6156 29.8545 37.6398 29.1896Z" fill="#F9A9A0"/>
<path d="M20.3082 28.5549C20.3324 27.8901 19.4589 27.3186 18.3571 27.2785C17.2553 27.2383 16.3425 27.7447 16.3183 28.4095C16.294 29.0743 17.1676 29.6458 18.2694 29.6859C19.3712 29.7261 20.284 29.2197 20.3082 28.5549Z" fill="#F9A9A0"/>
<path d="M40.6039 20.5477C40.5119 20.6405 40.3558 20.6146 40.2868 20.5038C39.5008 19.2395 38.5579 18.1169 37.4929 17.1468C37.413 17.0742 37.4152 16.944 37.5037 16.8821C38.1178 16.4514 38.8995 16.3226 39.6654 16.5772C40.0042 16.6901 40.3141 16.8872 40.5651 17.141C41.4964 18.0817 41.6402 19.5042 40.6039 20.5477Z" fill="#D62B17"/>
</svg>
